Coordinates
version=1
nRows=10
nColumns=63
inDegrees=yes

Units are S.I. units (second, meters, Newtons, ...)
If the header above contains a line with 'inDegrees', this indicates whether rotational values are in degrees (yes) or radians (no).

endheader
time	pelvis_tilt	pelvis_list	pelvis_rotation	pelvis_tx	pelvis_ty	pelvis_tz	hip_flexion_r	hip_adduction_r	hip_rotation_r	knee_angle_r	knee_angle_r_beta	ankle_angle_r	subtalar_angle_r	mtp_angle_r	hip_flexion_l	hip_adduction_l	hip_rotation_l	knee_angle_l	knee_angle_l_beta	ankle_angle_l	subtalar_angle_l	mtp_angle_l	L5_S1_Flex_Ext	L5_S1_Lat_Bending	L5_S1_axial_rotation	L4_L5_Flex_Ext	L4_L5_Lat_Bending	L4_L5_axial_rotation	L3_L4_Flex_Ext	L3_L4_Lat_Bending	L3_L4_axial_rotation	L2_L3_Flex_Ext	L2_L3_Lat_Bending	L2_L3_axial_rotation	L1_L2_Flex_Ext	L1_L2_Lat_Bending	L1_L2_axial_rotation	L1_T12_Flex_Ext	L1_T12_Lat_Bending	L1_T12_axial_rotation	Abs_r3	Abs_r2	Abs_r1	Abs_t1	Abs_t2	neck_flexion	neck_bending	neck_rotation	arm_flex_r	arm_add_r	arm_rot_r	elbow_flex_r	pro_sup_r	wrist_flex_r	wrist_dev_r	arm_flex_l	arm_add_l	arm_rot_l	elbow_flex_l	pro_sup_l	wrist_flex_l	wrist_dev_l
      0.00000000	      4.92301277	     -4.95287988	     90.37160354	      0.22469092	      0.79210779	      0.65252108	      0.01061882	      6.44896527	    -15.37402858	      0.28143876	      0.00491203	     -5.83413663	    -15.92418003	      0.00000000	      0.90109882	     -6.64148915	     12.90711171	      1.23310329	      0.02152171	     17.92089981	      1.60405572	      0.00000000	      0.02924628	      0.57271517	     -1.54670832	      0.05431326	      0.76171117	     -1.64337759	      0.04804871	      1.39249966	     -1.64337759	      0.03342557	      1.39249966	     -1.35336978	      0.02715809	      1.16788077	     -1.25670051	      0.01671132	      0.88713580	     -1.16003124	      0.20890323	      6.47866852	     -8.60232765	      0.00000000	      0.00000000	     24.62639729	      2.31308903	     10.21217991	     24.74740696	     -7.56134609	    100.36261096	     45.68474335	      2.36900193	     -0.09073051	     15.43619342	     10.46405377	     -4.66365900	     44.27654919	     46.66497080	     67.07271063	      7.40962653	     10.15883428
      0.01666667	      4.99341053	     -5.22564110	     90.82295812	      0.22391364	      0.79146199	      0.65241185	      0.41765915	      6.41480890	    -14.51140537	      0.25773125	      0.00449826	     -4.75857489	    -16.61717291	      0.00000000	      1.38462497	     -6.65510733	     13.26011225	      1.27865544	      0.02231675	     18.02513608	      1.60843447	      0.00000000	      0.06273475	      0.57664068	     -1.45647740	      0.11650470	      0.76693211	     -1.54750724	      0.10306692	      1.40204416	     -1.54750724	      0.07169954	      1.40204416	     -1.27441773	      0.05825549	      1.17588568	     -1.18338789	      0.03584663	      0.89321642	     -1.09235805	      0.44810803	      6.52307475	     -8.10049038	      0.00000000	      0.00000000	     25.23922269	      2.11213376	      9.20421334	     24.29816478	     -7.59631485	     99.75188726	     45.12940043	      2.60211629	      0.54294425	     15.63754927	     10.77577822	     -4.72767522	     45.97440849	     46.36924902	     66.97342069	      8.19292255	     11.12410419
      0.03333333	      5.14895498	     -5.61325406	     91.09883287	      0.22345523	      0.79070885	      0.65220212	      0.98309833	      6.46026352	    -15.83198721	      0.43660241	      0.00762015	     -3.18096842	    -14.37310297	      0.00000000	      2.14827150	     -6.70606340	     12.28902275	      1.87064850	      0.03264898	     18.23600790	      2.14786513	      0.00000000	      0.13054579	      0.59994861	     -1.42089648	      0.24243658	      0.79793165	     -1.50970251	      0.21447367	      1.45871505	     -1.50970251	      0.14920078	      1.45871505	     -1.24328442	      0.12122482	      1.22341520	     -1.15447839	      0.07459386	      0.92932040	     -1.06567236	      0.93247550	      6.78673866	     -7.90259998	      0.00000000	      0.00000000	     25.10311688	      1.95946906	      8.97999093	     24.12661570	     -7.61131072	     99.94477770	     44.77719082	      5.87327399	      0.82633934	     14.61326146	     10.79789463	     -4.77415487	     47.19600330	     46.27639951	     66.04432692	      8.08953982	     11.32690236
      0.05000000	      5.10620500	     -5.48371605	     91.46359848	      0.22301287	      0.79060072	      0.65201600	      0.79914663	      6.41447284	    -14.12796596	      0.23671650	      0.00413148	     -3.81622372	    -17.18986693	      0.00000000	      1.88667788	     -6.68087888	     13.45943517	      1.33514183	      0.02330262	     17.62232111	      1.81084690	      0.00000000	      0.10521775	      0.58848610	     -1.37741101	      0.19539988	      0.78268651	     -1.46349919	      0.17286224	      1.43084510	     -1.46349919	      0.12025337	      1.43084510	     -1.20523463	      0.09770520	      1.20004085	     -1.11914644	      0.06012142	      0.91156496	     -1.03305825	      0.75155986	      6.65707242	     -7.66074679	      0.00000000	      0.00000000	     25.70067530	      1.52533109	      7.82700357	     23.74656162	     -7.59614804	     98.96721004	     44.36159068	      3.87102137	      1.15930061	     15.17065139	     11.04262647	     -4.55391096	     47.52253554	     45.98792322	     65.66925670	      8.27763357	     12.64899557
      0.06666667	      5.06567963	     -5.76308645	     91.43076986	      0.22306747	      0.79002019	      0.65154630	      1.12402294	      6.31974587	    -15.05372025	      0.34264877	      0.00598035	     -2.98473539	    -15.59228341	      0.00000000	      2.45379765	     -6.52405470	     12.62970663	      2.05333367	      0.03583743	     17.70919759	      1.75479867	      0.00000000	      0.17242013	      0.58899623	     -1.33733217	      0.32020142	      0.78336498	     -1.42091543	      0.28326902	      1.43208542	     -1.42091543	      0.19705896	      1.43208542	     -1.17016565	      0.16010933	      1.20108110	     -1.08658239	      0.09852086	      0.91235515	     -1.00299913	      1.23157972	      6.66284310	     -7.43784031	      0.00000000	      0.00000000	     25.23847623	      1.44125312	      7.69469834	     23.61081818	     -7.55826474	     99.10906764	     44.13330568	      6.28861823	      1.03933974	     14.45789396	     10.92575989	     -4.30393973	     47.70043640	     45.59723435	     64.89184187	      7.94616109	     12.43280125
      0.08333333	      5.21896682	     -5.37657878	     91.80576452	      0.22302423	      0.79030934	      0.65092115	      0.61820556	      6.54252489	    -15.16160887	      0.23013481	      0.00401661	     -3.28694569	    -16.22149252	      0.00000000	      1.77469079	     -6.78490935	     13.22019910	      1.31909724	      0.02302259	     16.76204057	      2.38520547	      0.00000000	      0.11407071	      0.60589955	     -1.40456440	      0.21184072	      0.80584640	     -1.49234968	      0.18740677	      1.47318416	     -1.49234968	      0.13037142	      1.47318416	     -1.22899385	      0.10592606	      1.23555036	     -1.14120858	      0.06518000	      0.93853840	     -1.05342330	      0.81479568	      6.85405687	     -7.81176584	      0.00000000	      0.00000000	     25.59797891	      0.88995874	      7.37257264	     23.50839786	     -7.44232292	     98.72120132	     43.78880310	      6.22933336	      1.03748505	     14.12216129	     10.88106027	     -4.09218510	     47.16422648	     45.49099589	     64.52384366	      7.64450279	     12.63430501
      0.10000000	      5.16006380	     -5.23717707	     92.06911590	      0.22309665	      0.79026283	      0.65038390	      0.40978314	      6.52819894	    -15.48569767	      0.22493278	      0.00392582	     -4.27289258	    -16.79126946	      0.00000000	      1.61665280	     -6.74087719	     13.36834921	      1.28019409	      0.02234360	     16.26610458	      2.61052225	      0.00000000	      0.10609147	      0.58908791	     -1.46007129	      0.19702247	      0.78348692	     -1.55132575	      0.17429768	      1.43230834	     -1.55132575	      0.12125194	      1.43230834	     -1.27756238	      0.09851654	      1.20126806	     -1.18630792	      0.06062067	      0.91249717	     -1.09505347	      0.75780076	      6.66388025	     -8.12047850	      0.00000000	      0.00000000	     25.36763843	      0.67829852	      6.67407291	     23.37542250	     -7.41386131	     98.32502454	     43.74923562	      6.54632610	      0.97465920	     13.79128192	     10.69112519	     -3.97759675	     46.57638073	     45.57495262	     63.79636918	      7.01261779	     12.96069328
      0.11666667	      5.13052581	     -5.04629023	     92.10674150	      0.22352627	      0.79033915	      0.64958689	      0.11359286	      6.55272856	    -15.57137409	      0.21950070	      0.00383101	     -4.49559859	    -16.74601308	      0.00000000	      1.33398099	     -6.73459078	     13.30165386	      1.27119779	      0.02218659	     15.87686126	      2.73961583	      0.00000000	      0.09460550	      0.57859696	     -1.48808392	      0.17569187	      0.76953395	     -1.58108916	      0.15542737	      1.40680064	     -1.58108916	      0.10812462	      1.40680064	     -1.30207343	      0.08785067	      1.17987491	     -1.20906818	      0.05405758	      0.89624668	     -1.11606294	      0.67575761	      6.54520448	     -8.27627633	      0.00000000	      0.00000000	     25.05514811	      0.64127839	      6.44165260	     23.28314225	     -7.34990523	     98.11076750	     43.60615562	      6.65021359	      0.83889501	     13.67607824	     10.55080423	     -3.78164741	     46.13371141	     45.35386425	     63.39805539	      6.66472986	     12.68406867
      0.13333333	      5.13563525	     -5.05362659	     92.07189891	      0.22412744	      0.79002274	      0.64906189	      0.06901911	      6.61219434	    -15.58476616	      0.21760642	      0.00379795	     -4.47666881	    -16.75336856	      0.00000000	      1.27220287	     -6.76193118	     13.29392544	      1.27752501	      0.02229702	     15.83012367	      2.75123573	      0.00000000	      0.10208389	      0.57302837	     -1.49460851	      0.18958000	      0.76212774	     -1.58802155	      0.16771363	      1.39326119	     -1.58802155	      0.11667168	      1.39326119	     -1.30778245	      0.09479510	      1.16851946	     -1.21436942	      0.05833074	      0.88762095	     -1.12095639	      0.72917504	      6.48221157	     -8.31256417	      0.00000000	      0.00000000	     25.05169702	      0.64232677	      6.42804428	     23.32405164	     -7.36324580	     98.07902559	     43.58672846	      6.64870838	      0.82680869	     13.66861779	     10.54053062	     -3.73244406	     46.11565298	     45.33058420	     63.37431361	      6.64281163	     12.66127165
      0.15000000	      5.20690836	     -4.75560156	     92.19648053	      0.22465357	      0.79038956	      0.64759921	     -0.36156293	      6.76757451	    -15.46527650	      0.20847793	      0.00363863	     -4.01020382	    -16.80119046	      0.00000000	      0.81667342	     -6.89726619	     12.99521963	      1.17807597	      0.02056130	     14.72823034	      2.99415324	      0.00000000	      0.08356274	      0.56453249	     -1.52291187	      0.15518437	      0.75082821	     -1.61809387	      0.13728523	      1.37260430	     -1.61809387	      0.09550386	      1.37260430	     -1.33254789	      0.07759636	      1.15119466	     -1.23736590	      0.04774775	      0.87446083	     -1.14218391	      0.59688032	      6.38610444	     -8.46997897	      0.00000000	      0.00000000	     24.65031246	      0.84209082	      5.95751103	     23.04423135	     -7.30802092	     97.62099564	     43.41083236	      6.45622712	      0.57825037	     13.62752252	     10.28685935	     -3.43499988	     45.66329345	     44.85533764	     62.87586420	      6.24200210	     12.02884070
